<svg xmlns="http://www.w3.org/2000/svg" xmlns:xlink="http://www.w3.org/1999/xlink" version="1.1" x="0px" y="0px" viewBox="0 0 100 125" enable-background="new 0 0 100 100" xml:space="preserve"><g><path d="M59.077,34.986c0.139-0.731,0.279-1.463,0.419-2.196c0.532,0.211,1.062,0.439,1.588,0.684   c0.293-1.289,0.585-2.579,0.876-3.87c-0.69-0.323-1.387-0.606-2.086-0.872c-3.236-1.227-6.555-1.84-9.874-1.84   c-3.319,0-6.638,0.613-9.874,1.84c-0.699,0.266-1.396,0.549-2.086,0.872c0.291,1.291,0.583,2.579,0.875,3.87   c0.527-0.245,1.057-0.473,1.59-0.684c0.139,0.733,0.279,1.465,0.418,2.196c0.005-0.001,0.01-0.002,0.016-0.004   c2.965-1.169,6.014-1.753,9.062-1.753s6.096,0.584,9.062,1.753C59.067,34.984,59.071,34.985,59.077,34.986z"/><path d="M40.126,16.059c0.326-0.123,0.655-0.355,0.982-0.467c2.924-0.991,5.907-1.546,8.892-1.546s5.968,0.466,8.892,1.457   c0.327,0.111,0.656,0.447,0.982,0.57C60.446,16.292,61.017,16,61.584,17H63v-3h-1v-1.25L50,4.396L38,12.75V14h-1v3h1.417   C38.982,16,39.553,16.277,40.126,16.059z"/><path d="M63.372,64.677L50,74.374l-16.813,12.19l-1.188,7.756C31.87,95.135,32.241,96,32.822,96h4.539L50,86.637l15.074-11.033   L63.372,64.677z"/><path d="M40.938,37.261l-1.808,11.496L50,40.875l6.252-4.534c-2.066-0.552-4.159-0.813-6.252-0.814   C46.952,35.525,43.904,36.092,40.938,37.261z"/><polygon points="61.859,55.055 60.156,44.226 50,51.592 37.229,60.854 35.088,74.47 50,63.656  "/><path d="M68.001,94.32l-1.414-8.896L52.14,96h15.038C67.759,96,68.131,95.135,68.001,94.32z"/><path d="M41.54,26.728c2.786-0.897,5.622-1.343,8.46-1.345c2.983-0.001,5.968,0.49,8.892,1.482c0.65-3.041,1.302-6.081,1.952-9.123   C57.311,16.18,53.655,15.404,50,15.408c-3.52,0.001-7.04,0.724-10.45,2.172c-0.131,0.055-0.262,0.104-0.394,0.162   c0.65,3.042,1.302,6.083,1.952,9.123C41.251,26.816,41.396,26.774,41.54,26.728z"/></g><text x="0" y="115" fill="#000000" font-size="5px" font-weight="bold" font-family="'Helvetica Neue', Helvetica, Arial-Unicode, Arial, Sans-serif">by Arturo Alejandro Romo Escartin</text><text x="0" y="120" fill="#000000" font-size="5px" font-weight="bold" font-family="'Helvetica Neue', Helvetica, Arial-Unicode, Arial, Sans-serif">from the Noun Project</text></svg>